# xmcd
#
# Track frame offsets:
#	150
#	12525
#	31875
#	70575
#	100650
#	129000
#	156900
#	169500
#
# Disc length: 2511 seconds
#
# Revision: 0
# Processed by: cddbd v1.5.1PL2 Copyright (c) Steve Scherf et al.
# Submitted via: EasyCDDAExtractor 8.0.2.1
#
DISCID=5409cd08
DTITLE=Heavy Metal Kids - Barbarellas Birmingham 31-03-78 Disc 1
DYEAR=1978
DGENRE=Hard Rock
TTITLE0=Overture
TTITLE1=Chelsea Kids
TTITLE2=Squallidy Inn
TTITLE3=New Wave
TTITLE4=Cry For Me
TTITLE5=Sneaky Sam
TTITLE6=Strangers In The Night
TTITLE7=She's No Angel
EXTD=
EXTT0=
EXTT1=
EXTT2=
EXTT3=
EXTT4=
EXTT5=
EXTT6=
EXTT7=
PLAYORDER=
